<svg width="210" height="60" viewBox="0 0 210 60" fill="none" xmlns="http://www.w3.org/2000/svg">
<path d="M14.28 35.48C12.44 35.48 10.76 35.1733 9.24 34.56C7.72 33.9466 6.42667 33.04 5.36 31.84C4.29333 30.6133 3.46667 29.1066 2.88 27.32C2.29333 25.5066 2 23.4133 2 21.04C2 18.6666 2.29333 16.5866 2.88 14.8C3.46667 12.9866 4.29333 11.48 5.36 10.28C6.42667 9.05331 7.72 8.13331 9.24 7.51998C10.76 6.90664 12.44 6.59998 14.28 6.59998C16.12 6.59998 17.8 6.90664 19.32 7.51998C20.84 8.13331 22.1333 9.05331 23.2 10.28C24.2667 11.48 25.0933 12.9866 25.68 14.8C26.2667 16.5866 26.56 18.6666 26.56 21.04C26.56 23.4133 26.2667 25.5066 25.68 27.32C25.0933 29.1066 24.2667 30.6133 23.2 31.84C22.1333 33.04 20.84 33.9466 19.32 34.56C17.8 35.1733 16.12 35.48 14.28 35.48ZM14.28 30.08C16.12 30.08 17.5467 29.48 18.56 28.28C19.6 27.08 20.12 25.36 20.12 23.12V18.96C20.12 16.72 19.6 15 18.56 13.8C17.5467 12.6 16.12 12 14.28 12C12.44 12 11 12.6 9.96 13.8C8.94667 15 8.44 16.72 8.44 18.96V23.12C8.44 25.36 8.94667 27.08 9.96 28.28C11 29.48 12.44 30.08 14.28 30.08Z" fill="#212529"/>
<path d="M40.5184 35.48C38.0651 35.48 35.9851 35.0666 34.2784 34.24C32.5718 33.3866 31.1184 32.2933 29.9184 30.96L33.9184 26.92C35.8118 29.0533 38.1451 30.12 40.9184 30.12C42.4118 30.12 43.5184 29.8133 44.2384 29.2C44.9584 28.5866 45.3184 27.7733 45.3184 26.76C45.3184 25.9866 45.1051 25.3466 44.6784 24.84C44.2518 24.3066 43.3851 23.9466 42.0784 23.76L39.3184 23.4C36.3584 23.0266 34.1851 22.1333 32.7984 20.72C31.4384 19.3066 30.7584 17.4266 30.7584 15.08C30.7584 13.8266 30.9984 12.68 31.4784 11.64C31.9584 10.6 32.6384 9.70664 33.5184 8.95998C34.4251 8.21331 35.5184 7.63998 36.7984 7.23998C38.1051 6.81331 39.5851 6.59998 41.2384 6.59998C43.3451 6.59998 45.1984 6.93331 46.7984 7.59997C48.3984 8.26664 49.7718 9.23998 50.9184 10.52L46.8784 14.6C46.2118 13.8266 45.3984 13.2 44.4384 12.72C43.5051 12.2133 42.3184 11.96 40.8784 11.96C39.5184 11.96 38.5051 12.2 37.8384 12.68C37.1718 13.16 36.8384 13.8266 36.8384 14.68C36.8384 15.64 37.0918 16.3333 37.5984 16.76C38.1318 17.1866 38.9851 17.4933 40.1584 17.68L42.9184 18.12C45.7984 18.5733 47.9318 19.4666 49.3184 20.8C50.7051 22.1066 51.3984 23.9733 51.3984 26.4C51.3984 27.7333 51.1584 28.96 50.6784 30.08C50.1984 31.2 49.4918 32.16 48.5584 32.96C47.6518 33.76 46.5184 34.3866 45.1584 34.84C43.7984 35.2666 42.2518 35.48 40.5184 35.48Z" fill="#212529"/>
<path d="M64.8794 35.48C63.2794 35.48 61.8527 35.2266 60.5994 34.72C59.346 34.1866 58.2794 33.4533 57.3994 32.52C56.546 31.56 55.8927 30.4 55.4394 29.04C55.0127 27.68 54.7994 26.16 54.7994 24.48C54.7994 22.8266 55.0127 21.3333 55.4394 20C55.866 18.64 56.4927 17.48 57.3194 16.52C58.1727 15.56 59.2127 14.8266 60.4394 14.32C61.666 13.7866 63.066 13.52 64.6394 13.52C66.3727 13.52 67.8527 13.8133 69.0794 14.4C70.3327 14.9866 71.346 15.7733 72.1194 16.76C72.9194 17.7466 73.4927 18.8933 73.8394 20.2C74.2127 21.48 74.3994 22.8266 74.3994 24.24V26H60.9194V26.32C60.9194 27.7066 61.2927 28.8133 62.0394 29.64C62.786 30.44 63.9594 30.84 65.5594 30.84C66.786 30.84 67.786 30.6 68.5594 30.12C69.3327 29.6133 70.0527 29.0133 70.7194 28.32L73.6794 32C72.746 33.0933 71.5194 33.9466 69.9994 34.56C68.506 35.1733 66.7994 35.48 64.8794 35.48ZM64.7594 17.88C63.5594 17.88 62.6127 18.28 61.9194 19.08C61.2527 19.8533 60.9194 20.8933 60.9194 22.2V22.52H68.2794V22.16C68.2794 20.88 67.986 19.8533 67.3994 19.08C66.8394 18.28 65.9594 17.88 64.7594 17.88Z" fill="#212529"/>
<path d="M99.7803 16.68H99.6603L97.6203 20.76L92.1803 30.64L86.8603 20.8L84.7403 16.4H84.6203V35H78.9003V7.07998H85.3403L92.1803 20.16H92.2603L99.0203 7.07998H105.5V35H99.7803V16.68Z" fill="#212529"/>
<path d="M122.874 35.48C121.034 35.48 119.354 35.1733 117.834 34.56C116.314 33.9466 115.02 33.04 113.954 31.84C112.887 30.6133 112.06 29.1066 111.474 27.32C110.887 25.5066 110.594 23.4133 110.594 21.04C110.594 18.6666 110.887 16.5866 111.474 14.8C112.06 12.9866 112.887 11.48 113.954 10.28C115.02 9.05331 116.314 8.13331 117.834 7.51998C119.354 6.90664 121.034 6.59998 122.874 6.59998C124.714 6.59998 126.394 6.90664 127.914 7.51998C129.434 8.13331 130.727 9.05331 131.794 10.28C132.86 11.48 133.687 12.9866 134.274 14.8C134.86 16.5866 135.154 18.6666 135.154 21.04C135.154 23.4133 134.86 25.5066 134.274 27.32C133.687 29.1066 132.86 30.6133 131.794 31.84C130.727 33.04 129.434 33.9466 127.914 34.56C126.394 35.1733 124.714 35.48 122.874 35.48ZM122.874 30.08C124.714 30.08 126.14 29.48 127.154 28.28C128.194 27.08 128.714 25.36 128.714 23.12V18.96C128.714 16.72 128.194 15 127.154 13.8C126.14 12.6 124.714 12 122.874 12C121.034 12 119.594 12.6 118.554 13.8C117.54 15 117.034 16.72 117.034 18.96V23.12C117.034 25.36 117.54 27.08 118.554 28.28C119.594 29.48 121.034 30.08 122.874 30.08Z" fill="#212529"/>
<path d="M149.112 35.48C146.659 35.48 144.579 35.0666 142.872 34.24C141.166 33.3866 139.712 32.2933 138.512 30.96L142.512 26.92C144.406 29.0533 146.739 30.12 149.512 30.12C151.006 30.12 152.112 29.8133 152.832 29.2C153.552 28.5866 153.912 27.7733 153.912 26.76C153.912 25.9866 153.699 25.3466 153.272 24.84C152.846 24.3066 151.979 23.9466 150.672 23.76L147.912 23.4C144.952 23.0266 142.779 22.1333 141.392 20.72C140.032 19.3066 139.352 17.4266 139.352 15.08C139.352 13.8266 139.592 12.68 140.072 11.64C140.552 10.6 141.232 9.70664 142.112 8.95998C143.019 8.21331 144.112 7.63998 145.392 7.23998C146.699 6.81331 148.179 6.59998 149.832 6.59998C151.939 6.59998 153.792 6.93331 155.392 7.59997C156.992 8.26664 158.366 9.23998 159.512 10.52L155.472 14.6C154.806 13.8266 153.992 13.2 153.032 12.72C152.099 12.2133 150.912 11.96 149.472 11.96C148.112 11.96 147.099 12.2 146.432 12.68C145.766 13.16 145.432 13.8266 145.432 14.68C145.432 15.64 145.686 16.3333 146.192 16.76C146.726 17.1866 147.579 17.4933 148.752 17.68L151.512 18.12C154.392 18.5733 156.526 19.4666 157.912 20.8C159.299 22.1066 159.992 23.9733 159.992 26.4C159.992 27.7333 159.752 28.96 159.272 30.08C158.792 31.2 158.086 32.16 157.152 32.96C156.246 33.76 155.112 34.3866 153.752 34.84C152.392 35.2666 150.846 35.48 149.112 35.48Z" fill="#212529"/>
<path d="M170.272 35V24.08L160.712 7.07998H167.512L173.512 18.2H173.592L179.352 7.07998H185.952L176.392 24.04V35H170.272Z" fill="#212529"/>
<path d="M196.69 35.48C194.237 35.48 192.157 35.0666 190.45 34.24C188.744 33.3866 187.29 32.2933 186.09 30.96L190.09 26.92C191.984 29.0533 194.317 30.12 197.09 30.12C198.584 30.12 199.69 29.8133 200.41 29.2C201.13 28.5866 201.49 27.7733 201.49 26.76C201.49 25.9866 201.277 25.3466 200.85 24.84C200.424 24.3066 199.557 23.9466 198.25 23.76L195.49 23.4C192.53 23.0266 190.357 22.1333 188.97 20.72C187.61 19.3066 186.93 17.4266 186.93 15.08C186.93 13.8266 187.17 12.68 187.65 11.64C188.13 10.6 188.81 9.70664 189.69 8.95998C190.597 8.21331 191.69 7.63998 192.97 7.23998C194.277 6.81331 195.757 6.59998 197.41 6.59998C199.517 6.59998 201.37 6.93331 202.97 7.59997C204.57 8.26664 205.944 9.23998 207.09 10.52L203.05 14.6C202.384 13.8266 201.57 13.2 200.61 12.72C199.677 12.2133 198.49 11.96 197.05 11.96C195.69 11.96 194.677 12.2 194.01 12.68C193.344 13.16 193.01 13.8266 193.01 14.68C193.01 15.64 193.264 16.3333 193.77 16.76C194.304 17.1866 195.157 17.4933 196.33 17.68L199.09 18.12C201.97 18.5733 204.104 19.4666 205.49 20.8C206.877 22.1066 207.57 23.9733 207.57 26.4C207.57 27.7333 207.33 28.96 206.85 30.08C206.37 31.2 205.664 32.16 204.73 32.96C203.824 33.76 202.69 34.3866 201.33 34.84C199.97 35.2666 198.424 35.48 196.69 35.48Z" fill="#212529"/>
<path d="M5.27191 55.144C4.72791 55.144 4.23191 55.052 3.78391 54.868C3.34391 54.676 2.96391 54.4 2.64391 54.04C2.33191 53.672 2.08791 53.22 1.91191 52.684C1.74391 52.14 1.65991 51.516 1.65991 50.812C1.65991 50.108 1.74391 49.488 1.91191 48.952C2.08791 48.408 2.33191 47.956 2.64391 47.596C2.96391 47.228 3.34391 46.952 3.78391 46.768C4.23191 46.576 4.72791 46.48 5.27191 46.48C5.81591 46.48 6.30791 46.576 6.74791 46.768C7.19591 46.952 7.57591 47.228 7.88791 47.596C8.20791 47.956 8.45191 48.408 8.61991 48.952C8.79591 49.488 8.88391 50.108 8.88391 50.812C8.88391 51.516 8.79591 52.14 8.61991 52.684C8.45191 53.22 8.20791 53.672 7.88791 54.04C7.57591 54.4 7.19591 54.676 6.74791 54.868C6.30791 55.052 5.81591 55.144 5.27191 55.144ZM5.27191 53.932C5.59191 53.932 5.88391 53.876 6.14791 53.764C6.41991 53.652 6.64791 53.492 6.83191 53.284C7.02391 53.068 7.17191 52.808 7.27591 52.504C7.37991 52.2 7.43191 51.856 7.43191 51.472V50.152C7.43191 49.768 7.37991 49.424 7.27591 49.12C7.17191 48.816 7.02391 48.56 6.83191 48.352C6.64791 48.136 6.41991 47.972 6.14791 47.86C5.88391 47.748 5.59191 47.692 5.27191 47.692C4.94391 47.692 4.64791 47.748 4.38391 47.86C4.11991 47.972 3.89191 48.136 3.69991 48.352C3.51591 48.56 3.37191 48.816 3.26791 49.12C3.16391 49.424 3.11191 49.768 3.11191 50.152V51.472C3.11191 51.856 3.16391 52.2 3.26791 52.504C3.37191 52.808 3.51591 53.068 3.69991 53.284C3.89191 53.492 4.11991 53.652 4.38391 53.764C4.64791 53.876 4.94391 53.932 5.27191 53.932Z" fill="#212529"/>
<path d="M10.3589 48.76H11.6669V49.792H11.7269C11.8629 49.416 12.0829 49.128 12.3869 48.928C12.6989 48.72 13.0629 48.616 13.4789 48.616C14.2709 48.616 14.8829 48.904 15.3149 49.48C15.7469 50.048 15.9629 50.848 15.9629 51.88C15.9629 52.912 15.7469 53.716 15.3149 54.292C14.8829 54.86 14.2709 55.144 13.4789 55.144C13.0629 55.144 12.6989 55.04 12.3869 54.832C12.0829 54.624 11.8629 54.336 11.7269 53.968H11.6669V57.4H10.3589V48.76ZM13.0829 54.016C13.5389 54.016 13.9029 53.872 14.1749 53.584C14.4469 53.288 14.5829 52.9 14.5829 52.42V51.34C14.5829 50.86 14.4469 50.476 14.1749 50.188C13.9029 49.892 13.5389 49.744 13.0829 49.744C12.6829 49.744 12.3469 49.844 12.0749 50.044C11.8029 50.236 11.6669 50.492 11.6669 50.812V52.948C11.6669 53.268 11.8029 53.528 12.0749 53.728C12.3469 53.92 12.6829 54.016 13.0829 54.016Z" fill="#212529"/>
<path d="M19.7884 55.144C19.3404 55.144 18.9404 55.068 18.5884 54.916C18.2364 54.764 17.9364 54.548 17.6884 54.268C17.4404 53.98 17.2484 53.636 17.1124 53.236C16.9844 52.828 16.9204 52.376 16.9204 51.88C16.9204 51.384 16.9844 50.936 17.1124 50.536C17.2484 50.128 17.4404 49.784 17.6884 49.504C17.9364 49.216 18.2364 48.996 18.5884 48.844C18.9404 48.692 19.3404 48.616 19.7884 48.616C20.2444 48.616 20.6444 48.696 20.9884 48.856C21.3404 49.016 21.6324 49.24 21.8644 49.528C22.0964 49.808 22.2684 50.136 22.3804 50.512C22.5004 50.888 22.5604 51.292 22.5604 51.724V52.216H18.2764V52.42C18.2764 52.9 18.4164 53.296 18.6964 53.608C18.9844 53.912 19.3924 54.064 19.9204 54.064C20.3044 54.064 20.6284 53.98 20.8924 53.812C21.1564 53.644 21.3804 53.416 21.5644 53.128L22.3324 53.884C22.1004 54.268 21.7644 54.576 21.3244 54.808C20.8844 55.032 20.3724 55.144 19.7884 55.144ZM19.7884 49.636C19.5644 49.636 19.3564 49.676 19.1644 49.756C18.9804 49.836 18.8204 49.948 18.6844 50.092C18.5564 50.236 18.4564 50.408 18.3844 50.608C18.3124 50.808 18.2764 51.028 18.2764 51.268V51.352H21.1804V51.232C21.1804 50.752 21.0564 50.368 20.8084 50.08C20.5604 49.784 20.2204 49.636 19.7884 49.636Z" fill="#212529"/>
<path d="M23.8884 55V48.76H25.1964V49.792H25.2564C25.3924 49.456 25.5964 49.176 25.8684 48.952C26.1484 48.728 26.5284 48.616 27.0084 48.616C27.6484 48.616 28.1444 48.828 28.4964 49.252C28.8564 49.668 29.0364 50.264 29.0364 51.04V55H27.7284V51.208C27.7284 50.232 27.3364 49.744 26.5524 49.744C26.3844 49.744 26.2164 49.768 26.0484 49.816C25.8884 49.856 25.7444 49.92 25.6164 50.008C25.4884 50.096 25.3844 50.208 25.3044 50.344C25.2324 50.48 25.1964 50.64 25.1964 50.824V55H23.8884Z" fill="#212529"/>
<path d="M36.0493 55.144C35.3453 55.144 34.7453 55.016 34.2493 54.76C33.7613 54.504 33.3413 54.16 32.9893 53.728L33.9253 52.852C34.2213 53.212 34.5453 53.484 34.8973 53.668C35.2573 53.852 35.6653 53.944 36.1213 53.944C36.6573 53.944 37.0613 53.824 37.3333 53.584C37.6053 53.344 37.7413 53.02 37.7413 52.612C37.7413 52.284 37.6453 52.024 37.4533 51.832C37.2613 51.64 36.9213 51.496 36.4333 51.4L35.6893 51.268C34.8733 51.116 34.2613 50.848 33.8533 50.464C33.4453 50.08 33.2413 49.552 33.2413 48.88C33.2413 48.512 33.3093 48.18 33.4453 47.884C33.5893 47.58 33.7853 47.328 34.0333 47.128C34.2893 46.92 34.5973 46.76 34.9573 46.648C35.3173 46.536 35.7213 46.48 36.1693 46.48C36.8013 46.48 37.3493 46.592 37.8133 46.816C38.2773 47.032 38.6733 47.348 39.0013 47.764L38.0533 48.604C37.8373 48.324 37.5733 48.1 37.2613 47.932C36.9493 47.764 36.5613 47.68 36.0973 47.68C35.6173 47.68 35.2453 47.776 34.9813 47.968C34.7173 48.16 34.5853 48.44 34.5853 48.808C34.5853 49.16 34.6933 49.424 34.9093 49.6C35.1253 49.768 35.4613 49.896 35.9173 49.984L36.6613 50.14C37.5013 50.3 38.1133 50.572 38.4973 50.956C38.8893 51.34 39.0853 51.868 39.0853 52.54C39.0853 52.932 39.0173 53.288 38.8813 53.608C38.7453 53.928 38.5453 54.204 38.2813 54.436C38.0253 54.66 37.7093 54.836 37.3333 54.964C36.9573 55.084 36.5293 55.144 36.0493 55.144Z" fill="#212529"/>
<path d="M42.9452 55.144C42.5132 55.144 42.1172 55.068 41.7572 54.916C41.4052 54.764 41.1052 54.548 40.8572 54.268C40.6092 53.98 40.4172 53.636 40.2812 53.236C40.1452 52.828 40.0772 52.376 40.0772 51.88C40.0772 51.384 40.1452 50.936 40.2812 50.536C40.4172 50.128 40.6092 49.784 40.8572 49.504C41.1052 49.216 41.4052 48.996 41.7572 48.844C42.1172 48.692 42.5132 48.616 42.9452 48.616C43.3772 48.616 43.7692 48.692 44.1212 48.844C44.4812 48.996 44.7852 49.216 45.0332 49.504C45.2812 49.784 45.4732 50.128 45.6092 50.536C45.7452 50.936 45.8132 51.384 45.8132 51.88C45.8132 52.376 45.7452 52.828 45.6092 53.236C45.4732 53.636 45.2812 53.98 45.0332 54.268C44.7852 54.548 44.4812 54.764 44.1212 54.916C43.7692 55.068 43.3772 55.144 42.9452 55.144ZM42.9452 54.064C43.3932 54.064 43.7532 53.928 44.0252 53.656C44.2972 53.376 44.4332 52.96 44.4332 52.408V51.352C44.4332 50.8 44.2972 50.388 44.0252 50.116C43.7532 49.836 43.3932 49.696 42.9452 49.696C42.4972 49.696 42.1372 49.836 41.8652 50.116C41.5932 50.388 41.4572 50.8 41.4572 51.352V52.408C41.4572 52.96 41.5932 53.376 41.8652 53.656C42.1372 53.928 42.4972 54.064 42.9452 54.064Z" fill="#212529"/>
<path d="M50.9306 53.968H50.8826C50.8266 54.12 50.7506 54.268 50.6546 54.412C50.5666 54.556 50.4506 54.684 50.3066 54.796C50.1706 54.9 50.0026 54.984 49.8026 55.048C49.6106 55.112 49.3866 55.144 49.1306 55.144C48.4826 55.144 47.9786 54.936 47.6186 54.52C47.2666 54.104 47.0906 53.508 47.0906 52.732V48.76H48.3986V52.564C48.3986 53.532 48.7986 54.016 49.5986 54.016C49.7666 54.016 49.9306 53.996 50.0906 53.956C50.2506 53.908 50.3906 53.84 50.5106 53.752C50.6386 53.664 50.7386 53.552 50.8106 53.416C50.8906 53.28 50.9306 53.12 50.9306 52.936V48.76H52.2386V55H50.9306V53.968Z" fill="#212529"/>
<path d="M53.9915 55V48.76H55.2995V49.96H55.3595C55.4475 49.64 55.6315 49.36 55.9115 49.12C56.1915 48.88 56.5795 48.76 57.0755 48.76H57.4235V50.02H56.9075C56.3875 50.02 55.9875 50.104 55.7075 50.272C55.4355 50.44 55.2995 50.688 55.2995 51.016V55H53.9915Z" fill="#212529"/>
<path d="M60.8187 55.144C60.3707 55.144 59.9707 55.068 59.6187 54.916C59.2667 54.764 58.9707 54.548 58.7307 54.268C58.4907 53.98 58.3067 53.636 58.1787 53.236C58.0507 52.828 57.9867 52.376 57.9867 51.88C57.9867 51.384 58.0507 50.936 58.1787 50.536C58.3067 50.128 58.4907 49.784 58.7307 49.504C58.9707 49.216 59.2667 48.996 59.6187 48.844C59.9707 48.692 60.3707 48.616 60.8187 48.616C61.4427 48.616 61.9547 48.756 62.3547 49.036C62.7547 49.316 63.0467 49.688 63.2307 50.152L62.1507 50.656C62.0627 50.368 61.9067 50.14 61.6827 49.972C61.4667 49.796 61.1787 49.708 60.8187 49.708C60.3387 49.708 59.9747 49.86 59.7267 50.164C59.4867 50.46 59.3667 50.848 59.3667 51.328V52.444C59.3667 52.924 59.4867 53.316 59.7267 53.62C59.9747 53.916 60.3387 54.064 60.8187 54.064C61.2027 54.064 61.5067 53.972 61.7307 53.788C61.9627 53.596 62.1467 53.344 62.2827 53.032L63.2787 53.56C63.0707 54.072 62.7587 54.464 62.3427 54.736C61.9267 55.008 61.4187 55.144 60.8187 55.144Z" fill="#212529"/>
<path d="M66.7816 55.144C66.3336 55.144 65.9336 55.068 65.5816 54.916C65.2296 54.764 64.9296 54.548 64.6816 54.268C64.4336 53.98 64.2416 53.636 64.1056 53.236C63.9776 52.828 63.9136 52.376 63.9136 51.88C63.9136 51.384 63.9776 50.936 64.1056 50.536C64.2416 50.128 64.4336 49.784 64.6816 49.504C64.9296 49.216 65.2296 48.996 65.5816 48.844C65.9336 48.692 66.3336 48.616 66.7816 48.616C67.2376 48.616 67.6376 48.696 67.9816 48.856C68.3336 49.016 68.6256 49.24 68.8576 49.528C69.0896 49.808 69.2616 50.136 69.3736 50.512C69.4936 50.888 69.5536 51.292 69.5536 51.724V52.216H65.2696V52.42C65.2696 52.9 65.4096 53.296 65.6896 53.608C65.9776 53.912 66.3856 54.064 66.9136 54.064C67.2976 54.064 67.6216 53.98 67.8856 53.812C68.1496 53.644 68.3736 53.416 68.5576 53.128L69.3256 53.884C69.0936 54.268 68.7576 54.576 68.3176 54.808C67.8776 55.032 67.3656 55.144 66.7816 55.144ZM66.7816 49.636C66.5576 49.636 66.3496 49.676 66.1576 49.756C65.9736 49.836 65.8136 49.948 65.6776 50.092C65.5496 50.236 65.4496 50.408 65.3776 50.608C65.3056 50.808 65.2696 51.028 65.2696 51.268V51.352H68.1736V51.232C68.1736 50.752 68.0496 50.368 67.8016 50.08C67.5536 49.784 67.2136 49.636 66.7816 49.636Z" fill="#212529"/>
<path d="M73.6935 55V46.624H79.0575V47.824H75.0495V50.152H78.6855V51.352H75.0495V53.8H79.0575V55H73.6935Z" fill="#212529"/>
<path d="M80.5908 55V48.76H81.8988V49.792H81.9588C82.0948 49.456 82.2988 49.176 82.5708 48.952C82.8508 48.728 83.2308 48.616 83.7108 48.616C84.3508 48.616 84.8468 48.828 85.1988 49.252C85.5588 49.668 85.7388 50.264 85.7388 51.04V55H84.4308V51.208C84.4308 50.232 84.0388 49.744 83.2548 49.744C83.0868 49.744 82.9188 49.768 82.7508 49.816C82.5908 49.856 82.4468 49.92 82.3188 50.008C82.1908 50.096 82.0868 50.208 82.0068 50.344C81.9348 50.48 81.8988 50.64 81.8988 50.824V55H80.5908Z" fill="#212529"/>
<path d="M89.8797 55.144C89.4317 55.144 89.0317 55.068 88.6797 54.916C88.3277 54.764 88.0277 54.548 87.7797 54.268C87.5317 53.98 87.3397 53.636 87.2037 53.236C87.0757 52.828 87.0117 52.376 87.0117 51.88C87.0117 51.384 87.0757 50.936 87.2037 50.536C87.3397 50.128 87.5317 49.784 87.7797 49.504C88.0277 49.216 88.3277 48.996 88.6797 48.844C89.0317 48.692 89.4317 48.616 89.8797 48.616C90.3357 48.616 90.7357 48.696 91.0797 48.856C91.4317 49.016 91.7237 49.24 91.9557 49.528C92.1877 49.808 92.3597 50.136 92.4717 50.512C92.5917 50.888 92.6517 51.292 92.6517 51.724V52.216H88.3677V52.42C88.3677 52.9 88.5077 53.296 88.7877 53.608C89.0757 53.912 89.4837 54.064 90.0117 54.064C90.3957 54.064 90.7197 53.98 90.9837 53.812C91.2477 53.644 91.4717 53.416 91.6557 53.128L92.4237 53.884C92.1917 54.268 91.8557 54.576 91.4157 54.808C90.9757 55.032 90.4637 55.144 89.8797 55.144ZM89.8797 49.636C89.6557 49.636 89.4477 49.676 89.2557 49.756C89.0717 49.836 88.9117 49.948 88.7757 50.092C88.6477 50.236 88.5477 50.408 88.4757 50.608C88.4037 50.808 88.3677 51.028 88.3677 51.268V51.352H91.2717V51.232C91.2717 50.752 91.1477 50.368 90.8997 50.08C90.6517 49.784 90.3117 49.636 89.8797 49.636Z" fill="#212529"/>
<path d="M93.9797 55V48.76H95.2877V49.96H95.3477C95.4357 49.64 95.6197 49.36 95.8997 49.12C96.1797 48.88 96.5677 48.76 97.0637 48.76H97.4117V50.02H96.8957C96.3757 50.02 95.9757 50.104 95.6957 50.272C95.4237 50.44 95.2877 50.688 95.2877 51.016V55H93.9797Z" fill="#212529"/>
<path d="M103.703 55.588C103.703 56.236 103.455 56.724 102.959 57.052C102.463 57.38 101.655 57.544 100.535 57.544C100.023 57.544 99.5868 57.508 99.2268 57.436C98.8748 57.372 98.5828 57.276 98.3508 57.148C98.1268 57.02 97.9628 56.864 97.8588 56.68C97.7548 56.496 97.7028 56.284 97.7028 56.044C97.7028 55.7 97.7948 55.432 97.9788 55.24C98.1708 55.048 98.4348 54.916 98.7708 54.844V54.712C98.2988 54.56 98.0628 54.24 98.0628 53.752C98.0628 53.432 98.1708 53.188 98.3868 53.02C98.6028 52.844 98.8628 52.72 99.1668 52.648V52.6C98.7988 52.424 98.5148 52.18 98.3148 51.868C98.1228 51.548 98.0268 51.176 98.0268 50.752C98.0268 50.112 98.2388 49.596 98.6628 49.204C99.0948 48.812 99.7108 48.616 100.511 48.616C100.951 48.616 101.327 48.68 101.639 48.808V48.64C101.639 48.36 101.703 48.144 101.831 47.992C101.967 47.832 102.175 47.752 102.455 47.752H103.415V48.808H102.143V49.06C102.423 49.244 102.639 49.484 102.791 49.78C102.943 50.068 103.019 50.392 103.019 50.752C103.019 51.384 102.803 51.896 102.371 52.288C101.939 52.672 101.323 52.864 100.523 52.864C100.219 52.864 99.9468 52.832 99.7068 52.768C99.5468 52.824 99.4068 52.904 99.2868 53.008C99.1668 53.104 99.1068 53.232 99.1068 53.392C99.1068 53.56 99.1828 53.68 99.3348 53.752C99.4868 53.824 99.7028 53.86 99.9828 53.86H101.519C102.287 53.86 102.843 54.016 103.187 54.328C103.531 54.632 103.703 55.052 103.703 55.588ZM102.479 55.732C102.479 55.516 102.395 55.344 102.227 55.216C102.067 55.088 101.771 55.024 101.339 55.024H99.2268C98.9388 55.192 98.7948 55.432 98.7948 55.744C98.7948 56 98.8948 56.204 99.0948 56.356C99.3028 56.516 99.6508 56.596 100.139 56.596H100.955C101.971 56.596 102.479 56.308 102.479 55.732ZM100.523 51.916C100.907 51.916 101.203 51.832 101.411 51.664C101.627 51.488 101.735 51.22 101.735 50.86V50.62C101.735 50.26 101.627 49.996 101.411 49.828C101.203 49.652 100.907 49.564 100.523 49.564C100.139 49.564 99.8388 49.652 99.6228 49.828C99.4148 49.996 99.3108 50.26 99.3108 50.62V50.86C99.3108 51.22 99.4148 51.488 99.6228 51.664C99.8388 51.832 100.139 51.916 100.523 51.916Z" fill="#212529"/>
<path d="M108.443 48.76H109.703L107.075 56.236C107.003 56.444 106.919 56.62 106.823 56.764C106.735 56.916 106.627 57.036 106.499 57.124C106.379 57.22 106.231 57.288 106.055 57.328C105.879 57.376 105.671 57.4 105.431 57.4H104.675V56.332H105.731L106.091 55.276L103.823 48.76H105.131L106.379 52.432L106.739 53.788H106.799L107.195 52.432L108.443 48.76Z" fill="#212529"/>
<path d="M119.879 48.592H119.819L119.159 49.948L117.323 53.296L115.487 49.948L114.827 48.592H114.767V55H113.471V46.624H115.079L117.323 50.884H117.395L119.639 46.624H121.175V55H119.879V48.592Z" fill="#212529"/>
<path d="M125.476 55.144C125.044 55.144 124.648 55.068 124.288 54.916C123.936 54.764 123.636 54.548 123.388 54.268C123.14 53.98 122.948 53.636 122.812 53.236C122.676 52.828 122.608 52.376 122.608 51.88C122.608 51.384 122.676 50.936 122.812 50.536C122.948 50.128 123.14 49.784 123.388 49.504C123.636 49.216 123.936 48.996 124.288 48.844C124.648 48.692 125.044 48.616 125.476 48.616C125.908 48.616 126.3 48.692 126.652 48.844C127.012 48.996 127.316 49.216 127.564 49.504C127.812 49.784 128.004 50.128 128.14 50.536C128.276 50.936 128.344 51.384 128.344 51.88C128.344 52.376 128.276 52.828 128.14 53.236C128.004 53.636 127.812 53.98 127.564 54.268C127.316 54.548 127.012 54.764 126.652 54.916C126.3 55.068 125.908 55.144 125.476 55.144ZM125.476 54.064C125.924 54.064 126.284 53.928 126.556 53.656C126.828 53.376 126.964 52.96 126.964 52.408V51.352C126.964 50.8 126.828 50.388 126.556 50.116C126.284 49.836 125.924 49.696 125.476 49.696C125.028 49.696 124.668 49.836 124.396 50.116C124.124 50.388 123.988 50.8 123.988 51.352V52.408C123.988 52.96 124.124 53.376 124.396 53.656C124.668 53.928 125.028 54.064 125.476 54.064Z" fill="#212529"/>
<path d="M133.606 53.968H133.546C133.41 54.336 133.186 54.624 132.874 54.832C132.57 55.04 132.21 55.144 131.794 55.144C131.002 55.144 130.39 54.86 129.958 54.292C129.526 53.716 129.31 52.912 129.31 51.88C129.31 50.848 129.526 50.048 129.958 49.48C130.39 48.904 131.002 48.616 131.794 48.616C132.21 48.616 132.57 48.72 132.874 48.928C133.186 49.128 133.41 49.416 133.546 49.792H133.606V46.12H134.914V55H133.606V53.968ZM132.19 54.016C132.59 54.016 132.926 53.92 133.198 53.728C133.47 53.528 133.606 53.268 133.606 52.948V50.812C133.606 50.492 133.47 50.236 133.198 50.044C132.926 49.844 132.59 49.744 132.19 49.744C131.734 49.744 131.37 49.892 131.098 50.188C130.826 50.476 130.69 50.86 130.69 51.34V52.42C130.69 52.9 130.826 53.288 131.098 53.584C131.37 53.872 131.734 54.016 132.19 54.016Z" fill="#212529"/>
<path d="M139.111 55.144C138.663 55.144 138.263 55.068 137.911 54.916C137.559 54.764 137.259 54.548 137.011 54.268C136.763 53.98 136.571 53.636 136.435 53.236C136.307 52.828 136.243 52.376 136.243 51.88C136.243 51.384 136.307 50.936 136.435 50.536C136.571 50.128 136.763 49.784 137.011 49.504C137.259 49.216 137.559 48.996 137.911 48.844C138.263 48.692 138.663 48.616 139.111 48.616C139.567 48.616 139.967 48.696 140.311 48.856C140.663 49.016 140.955 49.24 141.187 49.528C141.419 49.808 141.591 50.136 141.703 50.512C141.823 50.888 141.883 51.292 141.883 51.724V52.216H137.599V52.42C137.599 52.9 137.739 53.296 138.019 53.608C138.307 53.912 138.715 54.064 139.243 54.064C139.627 54.064 139.951 53.98 140.215 53.812C140.479 53.644 140.703 53.416 140.887 53.128L141.655 53.884C141.423 54.268 141.087 54.576 140.647 54.808C140.207 55.032 139.695 55.144 139.111 55.144ZM139.111 49.636C138.887 49.636 138.679 49.676 138.487 49.756C138.303 49.836 138.143 49.948 138.007 50.092C137.879 50.236 137.779 50.408 137.707 50.608C137.635 50.808 137.599 51.028 137.599 51.268V51.352H140.503V51.232C140.503 50.752 140.379 50.368 140.131 50.08C139.883 49.784 139.543 49.636 139.111 49.636Z" fill="#212529"/>
<path d="M144.543 55C144.095 55 143.759 54.888 143.535 54.664C143.319 54.432 143.211 54.112 143.211 53.704V46.12H144.519V53.932H145.383V55H144.543Z" fill="#212529"/>
<path d="M147.775 55C147.327 55 146.991 54.888 146.767 54.664C146.551 54.432 146.443 54.112 146.443 53.704V46.12H147.751V53.932H148.615V55H147.775Z" fill="#212529"/>
<path d="M150.404 47.644C150.132 47.644 149.933 47.58 149.805 47.452C149.685 47.324 149.624 47.16 149.624 46.96V46.756C149.624 46.556 149.685 46.392 149.805 46.264C149.933 46.136 150.132 46.072 150.404 46.072C150.676 46.072 150.873 46.136 150.993 46.264C151.113 46.392 151.173 46.556 151.173 46.756V46.96C151.173 47.16 151.113 47.324 150.993 47.452C150.873 47.58 150.676 47.644 150.404 47.644ZM149.745 48.76H151.053V55H149.745V48.76Z" fill="#212529"/>
<path d="M152.8 55V48.76H154.108V49.792H154.168C154.304 49.456 154.508 49.176 154.78 48.952C155.06 48.728 155.44 48.616 155.92 48.616C156.56 48.616 157.056 48.828 157.408 49.252C157.768 49.668 157.948 50.264 157.948 51.04V55H156.64V51.208C156.64 50.232 156.248 49.744 155.464 49.744C155.296 49.744 155.128 49.768 154.96 49.816C154.8 49.856 154.656 49.92 154.528 50.008C154.4 50.096 154.296 50.208 154.216 50.344C154.144 50.48 154.108 50.64 154.108 50.824V55H152.8Z" fill="#212529"/>
<path d="M165.113 55.588C165.113 56.236 164.865 56.724 164.369 57.052C163.873 57.38 163.065 57.544 161.945 57.544C161.433 57.544 160.997 57.508 160.637 57.436C160.285 57.372 159.993 57.276 159.761 57.148C159.537 57.02 159.373 56.864 159.269 56.68C159.165 56.496 159.113 56.284 159.113 56.044C159.113 55.7 159.205 55.432 159.389 55.24C159.581 55.048 159.845 54.916 160.181 54.844V54.712C159.709 54.56 159.473 54.24 159.473 53.752C159.473 53.432 159.581 53.188 159.797 53.02C160.013 52.844 160.273 52.72 160.577 52.648V52.6C160.209 52.424 159.925 52.18 159.725 51.868C159.533 51.548 159.437 51.176 159.437 50.752C159.437 50.112 159.649 49.596 160.073 49.204C160.505 48.812 161.121 48.616 161.921 48.616C162.361 48.616 162.737 48.68 163.049 48.808V48.64C163.049 48.36 163.113 48.144 163.241 47.992C163.377 47.832 163.585 47.752 163.865 47.752H164.825V48.808H163.553V49.06C163.833 49.244 164.049 49.484 164.201 49.78C164.353 50.068 164.429 50.392 164.429 50.752C164.429 51.384 164.213 51.896 163.781 52.288C163.349 52.672 162.733 52.864 161.933 52.864C161.629 52.864 161.357 52.832 161.117 52.768C160.957 52.824 160.817 52.904 160.697 53.008C160.577 53.104 160.517 53.232 160.517 53.392C160.517 53.56 160.593 53.68 160.745 53.752C160.897 53.824 161.113 53.86 161.393 53.86H162.929C163.697 53.86 164.253 54.016 164.597 54.328C164.941 54.632 165.113 55.052 165.113 55.588ZM163.889 55.732C163.889 55.516 163.805 55.344 163.637 55.216C163.477 55.088 163.181 55.024 162.749 55.024H160.637C160.349 55.192 160.205 55.432 160.205 55.744C160.205 56 160.305 56.204 160.505 56.356C160.713 56.516 161.061 56.596 161.549 56.596H162.365C163.381 56.596 163.889 56.308 163.889 55.732ZM161.933 51.916C162.317 51.916 162.613 51.832 162.821 51.664C163.037 51.488 163.145 51.22 163.145 50.86V50.62C163.145 50.26 163.037 49.996 162.821 49.828C162.613 49.652 162.317 49.564 161.933 49.564C161.549 49.564 161.249 49.652 161.033 49.828C160.825 49.996 160.721 50.26 160.721 50.62V50.86C160.721 51.22 160.825 51.488 161.033 51.664C161.249 51.832 161.549 51.916 161.933 51.916Z" fill="#212529"/>
<path d="M171.286 55.144C170.582 55.144 169.982 55.016 169.486 54.76C168.998 54.504 168.578 54.16 168.226 53.728L169.162 52.852C169.458 53.212 169.782 53.484 170.134 53.668C170.494 53.852 170.902 53.944 171.358 53.944C171.894 53.944 172.298 53.824 172.57 53.584C172.842 53.344 172.978 53.02 172.978 52.612C172.978 52.284 172.882 52.024 172.69 51.832C172.498 51.64 172.158 51.496 171.67 51.4L170.926 51.268C170.11 51.116 169.498 50.848 169.09 50.464C168.682 50.08 168.478 49.552 168.478 48.88C168.478 48.512 168.546 48.18 168.682 47.884C168.826 47.58 169.022 47.328 169.27 47.128C169.526 46.92 169.834 46.76 170.194 46.648C170.554 46.536 170.958 46.48 171.406 46.48C172.038 46.48 172.586 46.592 173.05 46.816C173.514 47.032 173.91 47.348 174.238 47.764L173.29 48.604C173.074 48.324 172.81 48.1 172.498 47.932C172.186 47.764 171.798 47.68 171.334 47.68C170.854 47.68 170.482 47.776 170.218 47.968C169.954 48.16 169.822 48.44 169.822 48.808C169.822 49.16 169.93 49.424 170.146 49.6C170.362 49.768 170.698 49.896 171.154 49.984L171.898 50.14C172.738 50.3 173.35 50.572 173.734 50.956C174.126 51.34 174.322 51.868 174.322 52.54C174.322 52.932 174.254 53.288 174.118 53.608C173.982 53.928 173.782 54.204 173.518 54.436C173.262 54.66 172.946 54.836 172.57 54.964C172.194 55.084 171.766 55.144 171.286 55.144Z" fill="#212529"/>
<path d="M179.562 48.76H180.822L178.194 56.236C178.122 56.444 178.038 56.62 177.942 56.764C177.854 56.916 177.746 57.036 177.618 57.124C177.498 57.22 177.35 57.288 177.174 57.328C176.998 57.376 176.79 57.4 176.55 57.4H175.794V56.332H176.85L177.21 55.276L174.942 48.76H176.25L177.498 52.432L177.858 53.788H177.918L178.314 52.432L179.562 48.76Z" fill="#212529"/>
<path d="M183.688 55.144C183.096 55.144 182.6 55.04 182.2 54.832C181.8 54.624 181.452 54.336 181.156 53.968L181.996 53.2C182.228 53.48 182.484 53.7 182.764 53.86C183.052 54.012 183.384 54.088 183.76 54.088C184.144 54.088 184.428 54.016 184.612 53.872C184.804 53.72 184.9 53.512 184.9 53.248C184.9 53.048 184.832 52.88 184.696 52.744C184.568 52.6 184.34 52.508 184.012 52.468L183.436 52.396C182.796 52.316 182.292 52.132 181.924 51.844C181.564 51.548 181.384 51.112 181.384 50.536C181.384 50.232 181.44 49.964 181.552 49.732C181.664 49.492 181.82 49.292 182.02 49.132C182.228 48.964 182.472 48.836 182.752 48.748C183.04 48.66 183.356 48.616 183.7 48.616C184.26 48.616 184.716 48.704 185.068 48.88C185.428 49.056 185.748 49.3 186.028 49.612L185.224 50.38C185.064 50.188 184.852 50.024 184.588 49.888C184.332 49.744 184.036 49.672 183.7 49.672C183.34 49.672 183.072 49.744 182.896 49.888C182.728 50.032 182.644 50.22 182.644 50.452C182.644 50.692 182.72 50.872 182.872 50.992C183.024 51.112 183.268 51.2 183.604 51.256L184.18 51.328C184.868 51.432 185.368 51.636 185.68 51.94C186 52.236 186.16 52.636 186.16 53.14C186.16 53.444 186.1 53.72 185.98 53.968C185.868 54.208 185.704 54.416 185.488 54.592C185.272 54.768 185.012 54.904 184.708 55C184.404 55.096 184.064 55.144 183.688 55.144Z" fill="#212529"/>
<path d="M189.164 55C188.708 55 188.364 54.884 188.132 54.652C187.9 54.412 187.784 54.076 187.784 53.644V49.828H186.812V48.76H187.34C187.556 48.76 187.704 48.712 187.784 48.616C187.872 48.52 187.916 48.364 187.916 48.148V47.056H189.092V48.76H190.4V49.828H189.092V53.932H190.304V55H189.164Z" fill="#212529"/>
<path d="M194.1 55.144C193.652 55.144 193.252 55.068 192.9 54.916C192.548 54.764 192.248 54.548 192 54.268C191.752 53.98 191.56 53.636 191.424 53.236C191.296 52.828 191.232 52.376 191.232 51.88C191.232 51.384 191.296 50.936 191.424 50.536C191.56 50.128 191.752 49.784 192 49.504C192.248 49.216 192.548 48.996 192.9 48.844C193.252 48.692 193.652 48.616 194.1 48.616C194.556 48.616 194.956 48.696 195.3 48.856C195.652 49.016 195.944 49.24 196.176 49.528C196.408 49.808 196.58 50.136 196.692 50.512C196.812 50.888 196.872 51.292 196.872 51.724V52.216H192.588V52.42C192.588 52.9 192.728 53.296 193.008 53.608C193.296 53.912 193.704 54.064 194.232 54.064C194.616 54.064 194.94 53.98 195.204 53.812C195.468 53.644 195.692 53.416 195.876 53.128L196.644 53.884C196.412 54.268 196.076 54.576 195.636 54.808C195.196 55.032 194.684 55.144 194.1 55.144ZM194.1 49.636C193.876 49.636 193.668 49.676 193.476 49.756C193.292 49.836 193.132 49.948 192.996 50.092C192.868 50.236 192.768 50.408 192.696 50.608C192.624 50.808 192.588 51.028 192.588 51.268V51.352H195.492V51.232C195.492 50.752 195.368 50.368 195.12 50.08C194.872 49.784 194.532 49.636 194.1 49.636Z" fill="#212529"/>
<path d="M198.2 55V48.76H199.508V49.792H199.568C199.632 49.632 199.708 49.48 199.796 49.336C199.892 49.192 200.004 49.068 200.132 48.964C200.268 48.852 200.424 48.768 200.6 48.712C200.784 48.648 200.996 48.616 201.236 48.616C201.66 48.616 202.036 48.72 202.364 48.928C202.692 49.136 202.932 49.456 203.084 49.888H203.12C203.232 49.536 203.448 49.236 203.768 48.988C204.088 48.74 204.5 48.616 205.004 48.616C205.628 48.616 206.112 48.828 206.456 49.252C206.8 49.668 206.972 50.264 206.972 51.04V55H205.664V51.196C205.664 50.716 205.572 50.356 205.388 50.116C205.204 49.868 204.912 49.744 204.512 49.744C204.344 49.744 204.184 49.768 204.032 49.816C203.88 49.856 203.744 49.92 203.624 50.008C203.512 50.096 203.42 50.208 203.348 50.344C203.276 50.48 203.24 50.636 203.24 50.812V55H201.932V51.196C201.932 50.228 201.552 49.744 200.792 49.744C200.632 49.744 200.472 49.768 200.312 49.816C200.16 49.856 200.024 49.92 199.904 50.008C199.784 50.096 199.688 50.208 199.616 50.344C199.544 50.48 199.508 50.636 199.508 50.812V55H198.2Z" fill="#212529"/>
</svg>
